<?xml version="1.0"?>
<svg version="1.1" xmlns="http://www.w3.org/2000/svg" width="140" height="39" style=""><path fill="#ff0000" d="M15.8056640625,34.1630859375q0-0.087890625,0.05859375-0.62255859375t0.15380859375-1.3037109375t0.21240234375-1.6552734375t0.205078125-1.67724609375t0.15380859375-1.3916015625t0.06591796875-0.8056640625q-0.1171875-0.05859375-0.28564453125-0.16845703125t-0.16845703125-0.25634765625q0-0.205078125,0.19775390625-0.32958984375t0.34423828125-0.18310546875q0.05859375-0.7470703125,0.146484375-2.080078125t0.27099609375-2.87841796875t0.5126953125-3.134765625t0.87158203125-2.8857421875t1.3037109375-2.11669921875t1.875-0.8203125t1.845703125,0.703125t1.19384765625,1.8310546875t0.703125,2.5048828125t0.3662109375,2.7392578125t0.15380859375,2.548828125t0.05859375,1.904296875q0.029296875,0.4541015625,0.2197265625,0.60791015625t0.41748046875,0.21240234375t0.41015625,0.1318359375t0.18310546875,0.3662109375q0,0.3369140625-0.41015625,0.46875t-0.64453125,0.1611328125q0.146484375,1.8310546875,0.40283203125,3.603515625t0.68115234375,3.57421875q0.05859375,0.3369140625,0.1611328125,0.68115234375t0.1025390625,0.66650390625q0,0.234375-0.1611328125,0.38818359375t-0.41748046875,0.24169921875t-0.5126953125,0.1171875t-0.43212890625,0.029296875q-0.6591796875,0-1.11328125-0.2490234375t-0.6005859375-0.9521484375q-0.3955078125-1.8896484375-0.7763671875-3.9697265625q-0.322265625-1.8017578125-0.322265625-3.5009765625q0-0.263671875,0.0146484375-0.52734375q-1.23046875,0-2.4755859375,0.05859375t-2.3876953125,0.439453125q-0.029296875,0.3955078125-0.146484375,1.494140625t-0.263671875,2.3583984375t-0.30029296875,2.40966796875t-0.18310546875,1.63330078125q-0.029296875,0.205078125-0.30029296875,0.38818359375t-0.5859375,0.19775390625t-0.556640625-0.19775390625t-0.24169921875-0.75439453125z M18.544921875,25.2861328125q1.142578125-0.263671875,2.29248046875-0.3076171875t2.32177734375-0.1025390625q-0.05859375-0.3662109375-0.029296875-0.75439453125t0.029296875-0.78369140625q0-0.8642578125-0.0439453125-2.0068359375t-0.1318359375-2.314453125t-0.22705078125-2.30712890625t-0.31494140625-2.021484375t-0.37353515625-1.41357421875t-0.43212890625-0.52734375q-0.4541015625,0.029296875-0.85693359375,0.78369140625t-0.732421875,1.9189453125t-0.6005859375,2.607421875t-0.4541015625,2.81982421875t-0.30029296875,2.5634765625t-0.146484375,1.845703125z M30.566455078125,34.236328125q0-0.4248046875,0.03662109375-0.8935546875t0.06591796875-0.87890625l0.087890625-2.197265625q0.146484375-2.63671875,0.35888671875-5.185546875t0.35888671875-5.15625q0.087890625-1.435546875,0.1318359375-2.81982421875t0.1318359375-2.81982421875q-0.05859375-0.1171875-0.05859375-0.1611328125q0-0.205078125,0.15380859375-0.322265625t0.35888671875-0.19775390625t0.43212890625-0.10986328125t0.34423828125-0.029296875l0.3369140625,0q0.4541015625,0.05859375,0.6591796875,0.28564453125t0.263671875,0.5419921875t0.029296875,0.673828125t-0.029296875,0.66650390625q0,2.1240234375-0.1025390625,4.32861328125t-0.234375,4.423828125t-0.24169921875,4.4384765625t-0.10986328125,4.38720703125l0,1.025390625q0,0.6884765625-0.38818359375,0.908203125t-1.07666015625,0.2197265625q-0.6005859375,0-1.0546875-0.263671875t-0.4541015625-0.8642578125z M37.28525390625,22.9130859375q0-0.146484375,0.22705078125-0.2490234375t0.5419921875-0.146484375t0.6005859375-0.0732421875t0.43212890625-0.029296875q0.05859375-0.3955078125,0.16845703125-1.0693359375t0.27099609375-1.44287109375t0.40283203125-1.54541015625t0.5859375-1.40625t0.81298828125-1.03271484375t1.0986328125-0.40283203125l-0.029296875,0q0.205078125-0.029296875,0.40283203125-0.0439453125t0.40283203125-0.0146484375q0.4833984375,0,1.04736328125,0.1904296875t1.04736328125,0.53466796875t0.81298828125,0.82763671875t0.32958984375,1.025390625q0,0.4248046875-0.21240234375,0.91552734375t-0.73974609375,0.49072265625q-0.17578125,0-0.35888671875-0.087890625t-0.34423828125-0.1904296875q0.05859375-0.3369140625,0.05859375-0.673828125q0-0.17578125-0.0146484375-0.3369140625q-0.0439453125-0.5126953125-0.2197265625-0.90087890625t-0.50537109375-0.615234375t-0.78369140625-0.16845703125q-0.6005859375,0.087890625-0.90087890625,0.732421875t-0.41748046875,1.53076171875t-0.146484375,1.8017578125t-0.1171875,1.48681640625q0.6884765625,0.05859375,1.16455078125,0.05859375l1.19384765625,0q0.1171875,0,0.40283203125,0.0146484375t0.556640625,0.05859375t0.4833984375,0.15380859375t0.21240234375,0.28564453125q0,0.146484375-0.1171875,0.25634765625t-0.28564453125,0.15380859375t-0.3515625,0.05859375t-0.30029296875,0.0146484375q-0.5126953125,0-0.87158203125-0.0439453125t-0.6884765625-0.08056640625t-0.6884765625-0.03662109375t-0.84228515625,0.1025390625q-0.146484375,1.6259765625-0.234375,3.22265625t-0.087890625,3.22265625q0,2.548828125,0.1611328125,4.9951171875t0.5859375,4.9658203125q0.05859375,0.234375,0.1025390625,0.53466796875t0.0439453125,0.57861328125q0,0.263671875-0.1611328125,0.43212890625t-0.40283203125,0.24169921875t-0.498046875,0.1025390625t-0.46142578125,0.029296875q-0.8349609375,0-1.171875-0.25634765625t-0.4833984375-1.03271484375q-0.3662109375-2.0654296875-0.46875-4.16748046875t-0.1025390625-4.24072265625q0-2.0947265625,0.15380859375-4.18212890625t0.38818359375-4.15283203125q-0.1171875,0-0.40283203125,0.0146484375t-0.5712890625,0t-0.498046875-0.1025390625t-0.21240234375-0.3076171875z M48.090966796875,30.6328125l0-1.376953125q0-0.7470703125,0.03662109375-2.11669921875t0.09521484375-3.0029296875t0.1611328125-3.40576171875t0.234375-3.34716796875t0.31494140625-2.81982421875t0.41748046875-1.845703125q0.146484375-0.3369140625,0.4833984375-0.4248046875t0.6591796875-0.087890625q0.5126953125,0,0.90087890625,0.22705078125t0.38818359375,0.82763671875l-0.263671875,0.29296875q-0.5126953125,3.3837890625-0.6591796875,6.796875t-0.205078125,6.826171875q0.3662109375-0.5712890625,0.82763671875-1.12060546875t1.025390625-0.97412109375t1.2158203125-0.68115234375t1.42822265625-0.25634765625q0.99609375,0,1.64794921875,0.6005859375t1.07666015625,1.56005859375t0.6298828125,2.14599609375t0.31494140625,2.373046875t0.15380859375,2.24853515625t0.1318359375,1.76513671875q-0.2783203125,0.380859375-0.8203125,0.380859375l-0.0439453125,0q-0.234375,0-0.5126953125-0.05859375t-0.3662109375-0.29296875l0.029296875,0.029296875q-0.205078125-0.4541015625-0.2783203125-1.31103515625t-0.1171875-1.8896484375t-0.15380859375-2.11669921875t-0.32958984375-1.962890625t-0.64453125-1.4501953125t-1.142578125-0.6005859375l-0.087890625,0q-0.8642578125,0-1.4501953125,0.52734375q-0.615234375,0.556640625-0.99609375,1.46484375t-0.5859375,2.021484375t-0.31494140625,2.14599609375t-0.16845703125,1.875t-0.146484375,1.23779296875q-0.087890625,0.3369140625-0.52001953125,0.44677734375t-0.73974609375,0.10986328125q-0.7177734375,0-1.171875-0.41015625q-0.3369140625-0.8056640625-0.3955078125-2.0068359375t-0.05859375-2.34375z M62.1046875,29.0361328125q0-0.99609375,0.27099609375-1.9189453125t0.81298828125-1.64794921875t1.35498046875-1.1572265625t1.88232421875-0.43212890625q0.6591796875,0,1.45751953125,0.19775390625t1.50146484375,0.5859375t1.171875,0.98876953125t0.46875,1.376953125q0,0.3662109375-0.12451171875,0.556640625t-0.50537109375,0.1904296875l-0.1611328125-0.029296875q0.4248046875,1.142578125,0.732421875,2.34375t0.6005859375,2.40234375q0.1171875,0.234375,0.17578125,0.41748046875t0.05859375,0.35888671875q0,0.234375-0.1318359375,0.38818359375t-0.34423828125,0.22705078125t-0.439453125,0.1025390625t-0.40283203125,0.029296875q-0.6298828125,0-0.94482421875-0.2197265625t-0.4541015625-0.6005859375t-0.16845703125-0.85693359375t-0.1171875-0.95947265625q-0.17578125,0.5712890625-0.46142578125,1.11328125t-0.673828125,0.97412109375t-0.91552734375,0.6884765625t-1.1865234375,0.25634765625q-0.966796875,0-1.6259765625-0.556640625t-1.06201171875-1.36962890625t-0.5859375-1.73583984375t-0.18310546875-1.7138671875z M64.184765625,28.8310546875q0,0.5419921875,0.0732421875,1.142578125t0.24169921875,1.1865234375t0.43212890625,1.10595703125t0.6591796875,0.91552734375q0.7177734375-0.7763671875,1.06201171875-1.8896484375t0.615234375-2.14599609375t0.615234375-1.7724609375t1.06201171875-0.73974609375q0.4541015625,0,0.76171875,0.1611328125q-0.146484375-0.3662109375-0.4833984375-0.71044921875t-0.75439453125-0.6298828125t-0.8642578125-0.46875t-0.84228515625-0.18310546875q-0.1171875,0-0.27099609375,0.03662109375t-0.24169921875,0.00732421875q-0.6005859375,0.17578125-0.98876953125,0.60791015625t-0.6298828125,1.01806640625t-0.34423828125,1.201171875t-0.1025390625,1.1572265625z M73.906494140625,13.6552734375q0-0.205078125,0.28564453125-0.31494140625t0.37353515625-0.10986328125l0.5419921875-0.087890625q0.5419921875-0.087890625,1.0986328125-0.15380859375t1.083984375-0.12451171875q1.8603515625-0.234375,3.720703125-0.46142578125t3.75-0.22705078125q0.146484375,0,0.40283203125,0.0146484375t0.5126953125,0.08056640625t0.439453125,0.18310546875t0.18310546875,0.322265625q0,0.146484375-0.13916015625,0.25634765625t-0.32958984375,0.16845703125t-0.38818359375,0.0732421875t-0.31494140625,0.0146484375l-0.25634765625,0t-0.25634765625-0.05859375q-0.7763671875,0-1.53076171875,0.0732421875t-1.53076171875,0.1318359375q0.205078125,0.234375,0.2197265625,0.6591796875t0.029296875,0.732421875q0,5.185546875,0.0732421875,10.3125t0.1318359375,10.3564453125l0,0.029296875q-0.4833984375,0.4248046875-0.82763671875,0.5419921875t-0.69580078125,0.1171875q-0.3369140625,0-0.68115234375-0.12451171875t-0.82763671875-0.53466796875l0-0.029296875l0.1171875-11.4990234375q0-1.142578125-0.029296875-2.51953125t-0.029296875-2.79052734375t0.0439453125-2.73193359375t0.234375-2.2998046875q-0.8642578125,0.087890625-1.8310546875,0.263671875q-0.8349609375,0.146484375-1.5966796875,0.146484375l-0.263671875,0q-0.05859375,0-0.34423828125,0.0146484375t-0.5859375-0.0146484375t-0.5419921875-0.1171875t-0.24169921875-0.29296875z M87.78837890625,27.7470703125q0-0.29296875,0.06591796875-0.7763671875t0.15380859375-0.95947265625t0.205078125-0.88623046875t0.2783203125-0.52734375q0.1171875-0.1171875,0.40283203125-0.234375t0.6005859375-0.16845703125t0.5859375,0.0439453125t0.32958984375,0.38818359375q-0.205078125,0.263671875-0.37353515625,0.90087890625t-0.25634765625,1.41357421875q-0.0732421875,0.6591796875-0.0732421875,1.3623046875l0,0.2490234375q0.0146484375,0.8203125,0.146484375,1.5087890625t0.40283203125,1.13525390625t0.75439453125,0.44677734375q1.025390625,0,1.875-0.94482421875t1.5087890625-2.30712890625t1.1572265625-2.89306640625t0.849609375-2.67333984375q0.087890625-0.3369140625,0.41748046875-0.4541015625t0.71044921875-0.08056640625t0.68115234375,0.18310546875t0.35888671875,0.3515625q-0.29296875,2.4609375-0.46142578125,4.921875t-0.16845703125,4.951171875q0,0.4833984375,0.0439453125,0.88623046875t-0.0439453125,0.6884765625t-0.38818359375,0.4541015625t-0.95947265625,0.16845703125q-0.146484375,0-0.37353515625-0.029296875t-0.46875-0.09521484375t-0.41015625-0.19775390625t-0.16845703125-0.3076171875q0-1.083984375,0.08056640625-2.2265625t0.22705078125-2.2119140625q-0.3955078125,0.5712890625-0.87158203125,1.13525390625t-1.04736328125,1.01806640625t-1.23046875,0.72509765625t-1.4208984375,0.27099609375q-1.083984375,0-1.70654296875-0.5126953125t-0.9375-1.28173828125t-0.3955078125-1.67724609375t-0.08056640625-1.7578125z M101.56772460938,24.7734375q0-1.025390625,0.09521484375-2.666015625t0.22705078125-3.3837890625t0.32958984375-3.30322265625t0.43212890625-2.39501953125q0.087890625-0.3662109375,0.41748046875-0.439453125t0.66650390625-0.0732421875q0.4541015625,0,0.78369140625,0.1611328125t0.32958984375,0.703125q0,2.666015625-0.32958984375,5.33935546875t-0.35888671875,5.33935546875q0.4541015625-0.6884765625,1.171875-1.03271484375t1.5234375-0.34423828125q1.11328125,0,1.9189453125,0.4541015625t1.3037109375,1.171875t0.73974609375,1.66259765625t0.24169921875,1.92626953125q0,0.5419921875-0.10986328125,1.35498046875t-0.32958984375,1.7138671875t-0.556640625,1.787109375t-0.79833984375,1.58935546875t-1.06201171875,1.13525390625t-1.318359375,0.43212890625q-0.146484375,0-0.38818359375-0.0439453125t-0.4833984375-0.1318359375t-0.40283203125-0.22705078125t-0.1611328125-0.34423828125q0-0.234375,0.28564453125-0.32958984375t0.46142578125-0.09521484375q0.6591796875-0.29296875,1.171875-1.22314453125t0.85693359375-2.04345703125t0.52001953125-2.20458984375t0.17578125-1.77978515625q0-0.3955078125-0.1171875-1.0546875t-0.35888671875-1.3037109375t-0.6591796875-1.11328125t-0.98876953125-0.46875q-0.6884765625,0-1.0986328125,0.71044921875t-0.64453125,1.6552734375t-0.31494140625,1.9482421875t-0.08056640625,1.57470703125q0,0.3662109375,0.12451171875,0.72509765625t0.28564453125,0.7177734375t0.28564453125,0.732421875t0.12451171875,0.73974609375q0,0.17578125-0.15380859375,0.29296875t-0.35888671875,0.1904296875t-0.43212890625,0.09521484375t-0.34423828125,0.02197265625q-0.8349609375,0-1.1572265625-0.3955078125t-0.556640625-1.11328125q-0.5126953125-1.6259765625-0.71044921875-3.30322265625t-0.19775390625-3.36181640625z"/><path fill="#" d=""/></svg>
